solid OpenSCAD_Model
  facet normal -1 0 0
    outer loop
      vertex -5 9.90939 0.140594
      vertex -5 10.05 0.479995
      vertex -5 10.0135 0.296294
    endloop
  endfacet
  facet normal -1 0 0
    outer loop
      vertex -5 9.75369 0.0364981
      vertex -5 10.05 0.479995
      vertex -5 9.90939 0.140594
    endloop
  endfacet
  facet normal -1 0 0
    outer loop
      vertex -5 10.05 0.479995
      vertex -5 9.75369 0.0364981
      vertex -5 9.56999 0
    endloop
  endfacet
  facet normal -1 1.69649e-07 -7.70834e-07
    outer loop
      vertex -5 10.05 1.71719
      vertex -5 10.05 0.479995
      vertex -5 7.7 1.2
    endloop
  endfacet
  facet normal -1 0 0
    outer loop
      vertex -5 10.05 1.71719
      vertex -5 9.95 2.06209
      vertex -5 10.0232 1.88539
    endloop
  endfacet
  facet normal -1 0 0
    outer loop
      vertex -5 10.05 1.71719
      vertex -5 9.75 2.33789
      vertex -5 9.95 2.06209
    endloop
  endfacet
  facet normal -1 0 0
    outer loop
      vertex -5 8.09999 11.625
      vertex -5 9.64999 15.6
      vertex -5 9.64999 2.68278
    endloop
  endfacet
  facet normal -1 0 0
    outer loop
      vertex -5 8.09999 12.775
      vertex -5 9.64999 15.6
      vertex -5 8.09999 11.625
    endloop
  endfacet
  facet normal -1 0 0
    outer loop
      vertex -5 7.7 14.1
      vertex -5 9.64999 15.6
      vertex -5 8.09999 12.775
    endloop
  endfacet
  facet normal -1 0 0
    outer loop
      vertex -5 7.7 1.2
      vertex -5 9.64999 2.68278
      vertex -5 9.67679 2.51459
    endloop
  endfacet
  facet normal -1 0 0
    outer loop
      vertex -5 7.7 1.2
      vertex -5 9.75 2.33789
      vertex -5 10.05 1.71719
    endloop
  endfacet
  facet normal -1 0 0
    outer loop
      vertex -5 7.7 1.2
      vertex -5 9.67679 2.51459
      vertex -5 9.75 2.33789
    endloop
  endfacet
  facet normal -1 -0 0
    outer loop
      vertex -5 9.64999 2.68278
      vertex -5 7.7 1.2
      vertex -5 7.7 10.3
    endloop
  endfacet
  facet normal -1 0 0
    outer loop
      vertex -5 9.64999 2.68278
      vertex -5 7.7 10.3
      vertex -5 8.09999 11.625
    endloop
  endfacet
  facet normal -1 0 0
    outer loop
      vertex -5 7.7 15
      vertex -5 9.64999 15.6
      vertex -5 7.7 14.1
    endloop
  endfacet
  facet normal -1 0 -0
    outer loop
      vertex -5 8.38829 16
      vertex -5 9.64999 15.6
      vertex -5 7.7 15
    endloop
  endfacet
  facet normal -1 0 0
    outer loop
      vertex -5 9.64999 15.6
      vertex -5 8.38829 16
      vertex -5 9.25 16
    endloop
  endfacet
  facet normal -1 3.10644e-07 -3.10644e-07
    outer loop
      vertex -5 10.05 0.479995
      vertex -5 9.56999 0
      vertex -5 7.7 1.2
    endloop
  endfacet
  facet normal -1 0 -7.94731e-07
    outer loop
      vertex -5 9.56999 0
      vertex -5 7 1.2
      vertex -5 7.7 1.2
    endloop
  endfacet
  facet normal -1 -0 -7.94731e-07
    outer loop
      vertex -5 7 1.2
      vertex -5 9.56999 0
      vertex -5 6.01001 1.2
    endloop
  endfacet
  facet normal -1 0 0
    outer loop
      vertex -5 6.21001 3
      vertex -5 7 10.45
      vertex -5 7 1.2
    endloop
  endfacet
  facet normal -1 0 0
    outer loop
      vertex -5 6.21001 16
      vertex -5 7 10.45
      vertex -5 6.21001 3
    endloop
  endfacet
  facet normal -1 0 0
    outer loop
      vertex -5 7 10.45
      vertex -5 6.21001 16
      vertex -5 7 13.95
    endloop
  endfacet
  facet normal -1 0 0
    outer loop
      vertex -5 6.01001 2.39999
      vertex -5 7 1.2
      vertex -5 6.01001 1.2
    endloop
  endfacet
  facet normal -1 0 0
    outer loop
      vertex -5 7 1.2
      vertex -5 6.01001 2.39999
      vertex -5 6.21001 3
    endloop
  endfacet
  facet normal -1 0 0
    outer loop
      vertex -5 7 10.45
      vertex -5 7.39999 12.7
      vertex -5 7.39999 11.7
    endloop
  endfacet
  facet normal -1 -0 0
    outer loop
      vertex -5 7.39999 12.7
      vertex -5 7 10.45
      vertex -5 7 13.95
    endloop
  endfacet
  facet normal -1 0 0
    outer loop
      vertex -5 7 13.95
      vertex -5 6.21001 16
      vertex -5 7 16
    endloop
  endfacet
  facet normal -1 0 0
    outer loop
      vertex -5 2.51001 12.9299
      vertex -5 3.96001 12.9299
      vertex -5 2.51001 11.7
    endloop
  endfacet
  facet normal -1 0 0
    outer loop
      vertex -5 3.96001 12.9299
      vertex -5 2.51001 12.9299
      vertex -5 2.71001 13.35
    endloop
  endfacet
  facet normal -1 0 0
    outer loop
      vertex -5 2.71001 3.81459
      vertex -5 4.26001 11.6
      vertex -5 4.26001 1.71999
    endloop
  endfacet
  facet normal -1 0 0
    outer loop
      vertex -5 2.51001 11.7
      vertex -5 3.96001 11.6
      vertex -5 2.71001 11.2799
    endloop
  endfacet
  facet normal -1 0 0
    outer loop
      vertex -5 2.71001 11.2799
      vertex -5 4.26001 11.6
      vertex -5 2.71001 3.81459
    endloop
  endfacet
  facet normal -1 0 0
    outer loop
      vertex -5 3.96001 11.6
      vertex -5 2.51001 11.7
      vertex -5 3.96001 12.9299
    endloop
  endfacet
  facet normal -1 -0 0
    outer loop
      vertex -5 4.26001 11.6
      vertex -5 2.71001 11.2799
      vertex -5 3.96001 11.6
    endloop
  endfacet
  facet normal -1 0 0
    outer loop
      vertex -5 4.26001 1.71999
      vertex -5 2.68541 3.6169
      vertex -5 2.71001 3.81459
    endloop
  endfacet
  facet normal -1 0 0
    outer loop
      vertex -5 4.26001 1.71999
      vertex -5 2.61801 3.40069
      vertex -5 2.68541 3.6169
    endloop
  endfacet
  facet normal -1 0 0
    outer loop
      vertex -5 2.19 0
      vertex -5 4.26001 1.71999
      vertex -5 4.76001 1.2
    endloop
  endfacet
  facet normal -1 0 0
    outer loop
      vertex -5 4.26001 1.71999
      vertex -5 2.526 3.224
      vertex -5 2.61801 3.40069
    endloop
  endfacet
  facet normal -1 0 0
    outer loop
      vertex -5 2.19 0
      vertex -5 4.76001 1.2
      vertex -5 6.01001 1.2
    endloop
  endfacet
  facet normal -1 0 0
    outer loop
      vertex -5 4.26001 1.71999
      vertex -5 2.19 0
      vertex -5 1.71001 1.71719
    endloop
  endfacet
  facet normal -1 0 0
    outer loop
      vertex -5 1.71001 0.479995
      vertex -5 2.19 0
      vertex -5 2.0063 0.0364981
    endloop
  endfacet
  facet normal -1 0 0
    outer loop
      vertex -5 4.26001 1.71999
      vertex -5 1.89401 2.30778
      vertex -5 2.526 3.224
    endloop
  endfacet
  facet normal -1 0 0
    outer loop
      vertex -5 1.71001 0.479995
      vertex -5 2.0063 0.0364981
      vertex -5 1.8506 0.140594
    endloop
  endfacet
  facet normal -1 -0 0
    outer loop
      vertex -5 4.26001 1.71999
      vertex -5 1.71001 1.71719
      vertex -5 1.89401 2.30778
    endloop
  endfacet
  facet normal -1 0 0
    outer loop
      vertex -5 1.71001 0.479995
      vertex -5 1.8506 0.140594
      vertex -5 1.74651 0.296294
    endloop
  endfacet
  facet normal -1 0 0
    outer loop
      vertex -5 1.89401 2.30778
      vertex -5 1.71001 1.71719
      vertex -5 1.802 2.13109
    endloop
  endfacet
  facet normal -1 0 0
    outer loop
      vertex -5 2.19 0
      vertex -5 1.71001 0.479995
      vertex -5 1.71001 1.71719
    endloop
  endfacet
  facet normal -1 0 0
    outer loop
      vertex -5 1.802 2.13109
      vertex -5 1.71001 1.71719
      vertex -5 1.7346 1.91489
    endloop
  endfacet
  facet normal -1 0 0
    outer loop
      vertex -5 3.96001 12.9299
      vertex -5 4.26001 15.2
      vertex -5 4.26001 13.35
    endloop
  endfacet
  facet normal -1 -0 0
    outer loop
      vertex -5 4.26001 15.2
      vertex -5 3.96001 12.9299
      vertex -5 3.7263 16
    endloop
  endfacet
  facet normal -1 0 0
    outer loop
      vertex -5 3.96001 12.9299
      vertex -5 2.71001 13.35
      vertex -5 3.7263 16
    endloop
  endfacet
  facet normal -1 0 0
    outer loop
      vertex -5 2.71001 15.6
      vertex -5 3.7263 16
      vertex -5 2.71001 13.35
    endloop
  endfacet
  facet normal -1 -0 0
    outer loop
      vertex -5 3.7263 16
      vertex -5 2.71001 15.6
      vertex -5 3.11 16
    endloop
  endfacet
  facet normal -1 1.29224e-07 -4.11366e-07
    outer loop
      vertex -5 6.01001 1.2
      vertex -5 9.56999 0
      vertex -5 2.19 0
    endloop
  endfacet
  facet normal 1 -1.89337e-07 7.38298e-08
    outer loop
      vertex 5 9.64999 2.68279
      vertex 5 9.64999 15.6
      vertex 5 8.09999 11.625
    endloop
  endfacet
  facet normal 1 -7.969e-08 1.04799e-07
    outer loop
      vertex 5 7.7 1.2
      vertex 5 9.64999 2.68279
      vertex 5 7.7 10.3
    endloop
  endfacet
  facet normal 1 0 0
    outer loop
      vertex 5 7.7 14.1
      vertex 5 9.64999 15.6
      vertex 5 7.7 15
    endloop
  endfacet
  facet normal 1 0 0
    outer loop
      vertex 5 9.64999 15.6
      vertex 5 7.7 14.1
      vertex 5 8.09999 12.775
    endloop
  endfacet
  facet normal 1 -0 0
    outer loop
      vertex 5 8.38829 16
      vertex 5 9.64999 15.6
      vertex 5 9.25 16
    endloop
  endfacet
  facet normal 1 0 0
    outer loop
      vertex 5 7.7 15
      vertex 5 9.64999 15.6
      vertex 5 8.38829 16
    endloop
  endfacet
  facet normal 1 0 0
    outer loop
      vertex 5 9.64999 15.6
      vertex 5 8.09999 12.775
      vertex 5 8.09999 11.625
    endloop
  endfacet
  facet normal 1 -2.24422e-07 6.77483e-08
    outer loop
      vertex 5 9.64999 2.68279
      vertex 5 8.09999 11.625
      vertex 5 7.7 10.3
    endloop
  endfacet
  facet normal 1 0 0
    outer loop
      vertex 5 9.95 2.06209
      vertex 5 10.05 1.71719
      vertex 5 10.0232 1.88539
    endloop
  endfacet
  facet normal 1 0 0
    outer loop
      vertex 5 10.05 1.71719
      vertex 5 7.7 1.2
      vertex 5 10.05 0.479996
    endloop
  endfacet
  facet normal 1 0 0
    outer loop
      vertex 5 10.05 1.71719
      vertex 5 9.95 2.06209
      vertex 5 9.75 2.33789
    endloop
  endfacet
  facet normal 1 0 0
    outer loop
      vertex 5 10.05 0.479996
      vertex 5 9.56999 0
      vertex 5 10.0135 0.296295
    endloop
  endfacet
  facet normal 1 0 0
    outer loop
      vertex 5 10.0135 0.296295
      vertex 5 9.56999 0
      vertex 5 9.90939 0.140594
    endloop
  endfacet
  facet normal 1 0 0
    outer loop
      vertex 5 10.05 1.71719
      vertex 5 9.75 2.33789
      vertex 5 7.7 1.2
    endloop
  endfacet
  facet normal 1 0 0
    outer loop
      vertex 5 7.7 1.2
      vertex 5 9.75 2.33789
      vertex 5 9.67679 2.51459
    endloop
  endfacet
  facet normal 1 0 0
    outer loop
      vertex 5 7.7 1.2
      vertex 5 9.67679 2.51459
      vertex 5 9.64999 2.68279
    endloop
  endfacet
  facet normal 1 0 0
    outer loop
      vertex 5 9.90939 0.140594
      vertex 5 9.56999 0
      vertex 5 9.75369 0.036499
    endloop
  endfacet
  facet normal 1 0 0
    outer loop
      vertex 5 10.05 0.479996
      vertex 5 7.7 1.2
      vertex 5 9.56999 0
    endloop
  endfacet
  facet normal 1 0 0
    outer loop
      vertex 5 9.56999 0
      vertex 5 7.7 1.2
      vertex 5 7 1.2
    endloop
  endfacet
  facet normal 1 -9.63317e-07 -2.0631e-06
    outer loop
      vertex 5 9.56999 0
      vertex 5 7 1.2
      vertex 5 6.01001 1.2
    endloop
  endfacet
  facet normal 1 -0 0
    outer loop
      vertex 5 6.21001 16
      vertex 5 7 13.95
      vertex 5 7 16
    endloop
  endfacet
  facet normal 1 0 0
    outer loop
      vertex 5 7 13.95
      vertex 5 6.21001 16
      vertex 5 7 10.45
    endloop
  endfacet
  facet normal 1 0 0
    outer loop
      vertex 5 7 10.45
      vertex 5 6.21001 16
      vertex 5 6.21001 3
    endloop
  endfacet
  facet normal 1 0 0
    outer loop
      vertex 5 7 13.95
      vertex 5 7.39999 11.7
      vertex 5 7.39999 12.7
    endloop
  endfacet
  facet normal 1 0 0
    outer loop
      vertex 5 7.39999 11.7
      vertex 5 7 13.95
      vertex 5 7 10.45
    endloop
  endfacet
  facet normal 1 -9.72279e-07 1.031e-07
    outer loop
      vertex 5 7 1.2
      vertex 5 7 10.45
      vertex 5 6.21001 3
    endloop
  endfacet
  facet normal 1 -6.86107e-07 2.28697e-07
    outer loop
      vertex 5 7 1.2
      vertex 5 6.21001 3
      vertex 5 6.01001 2.39999
    endloop
  endfacet
  facet normal 1 -9.63317e-07 0
    outer loop
      vertex 5 7 1.2
      vertex 5 6.01001 2.39999
      vertex 5 6.01001 1.2
    endloop
  endfacet
  facet normal 1 0 0
    outer loop
      vertex 5 2.71001 13.35
      vertex 5 4.26001 13.35
      vertex 5 4.26001 15.2
    endloop
  endfacet
  facet normal 1 0 0
    outer loop
      vertex 5 4.26001 13.35
      vertex 5 2.71001 13.35
      vertex 5 3.96001 12.9299
    endloop
  endfacet
  facet normal 1 0 0
    outer loop
      vertex 5 2.71001 13.35
      vertex 5 4.26001 15.2
      vertex 5 3.7263 16
    endloop
  endfacet
  facet normal 1 0 0
    outer loop
      vertex 5 2.71001 11.2799
      vertex 5 4.26001 11.6
      vertex 5 3.96001 11.6
    endloop
  endfacet
  facet normal 1 0 0
    outer loop
      vertex 5 2.51001 12.9299
      vertex 5 3.96001 12.9299
      vertex 5 2.71001 13.35
    endloop
  endfacet
  facet normal 1 0 0
    outer loop
      vertex 5 2.71001 15.6
      vertex 5 3.7263 16
      vertex 5 3.11 16
    endloop
  endfacet
  facet normal 1 0 0
    outer loop
      vertex 5 3.7263 16
      vertex 5 2.71001 15.6
      vertex 5 2.71001 13.35
    endloop
  endfacet
  facet normal 1 0 0
    outer loop
      vertex 5 2.51001 11.7
      vertex 5 3.96001 12.9299
      vertex 5 2.51001 12.9299
    endloop
  endfacet
  facet normal 1 0 0
    outer loop
      vertex 5 4.26001 11.6
      vertex 5 2.71001 11.2799
      vertex 5 2.71001 3.81459
    endloop
  endfacet
  facet normal 1 0 0
    outer loop
      vertex 5 4.26001 11.6
      vertex 5 2.71001 3.81459
      vertex 5 4.26001 1.71999
    endloop
  endfacet
  facet normal 1 -0 0
    outer loop
      vertex 5 2.68541 3.6169
      vertex 5 4.26001 1.71999
      vertex 5 2.71001 3.81459
    endloop
  endfacet
  facet normal 1 -0 0
    outer loop
      vertex 5 2.61801 3.4007
      vertex 5 4.26001 1.71999
      vertex 5 2.68541 3.6169
    endloop
  endfacet
  facet normal 1 -0 0
    outer loop
      vertex 5 2.526 3.224
      vertex 5 4.26001 1.71999
      vertex 5 2.61801 3.4007
    endloop
  endfacet
  facet normal 1 -0 0
    outer loop
      vertex 5 1.89401 2.30779
      vertex 5 4.26001 1.71999
      vertex 5 2.526 3.224
    endloop
  endfacet
  facet normal 1 -0 0
    outer loop
      vertex 5 4.76001 1.2
      vertex 5 2.19 0
      vertex 5 6.01001 1.2
    endloop
  endfacet
  facet normal 1 0 0
    outer loop
      vertex 5 1.71001 1.71719
      vertex 5 4.26001 1.71999
      vertex 5 1.89401 2.30779
    endloop
  endfacet
  facet normal 1 0 -0
    outer loop
      vertex 5 2.19 0
      vertex 5 4.26001 1.71999
      vertex 5 1.71001 1.71719
    endloop
  endfacet
  facet normal 1 0 0
    outer loop
      vertex 5 4.26001 1.71999
      vertex 5 2.19 0
      vertex 5 4.76001 1.2
    endloop
  endfacet
  facet normal 1 -0 0
    outer loop
      vertex 5 1.71001 0.479996
      vertex 5 2.19 0
      vertex 5 1.71001 1.71719
    endloop
  endfacet
  facet normal 1 0 0
    outer loop
      vertex 5 1.71001 1.71719
      vertex 5 1.89401 2.30779
      vertex 5 1.802 2.13109
    endloop
  endfacet
  facet normal 1 0 0
    outer loop
      vertex 5 2.19 0
      vertex 5 1.71001 0.479996
      vertex 5 2.0063 0.036499
    endloop
  endfacet
  facet normal 1 0 0
    outer loop
      vertex 5 1.71001 1.71719
      vertex 5 1.802 2.13109
      vertex 5 1.7346 1.91489
    endloop
  endfacet
  facet normal 1 0 0
    outer loop
      vertex 5 2.0063 0.036499
      vertex 5 1.71001 0.479996
      vertex 5 1.8506 0.140594
    endloop
  endfacet
  facet normal 1 0 0
    outer loop
      vertex 5 1.8506 0.140594
      vertex 5 1.71001 0.479996
      vertex 5 1.7465 0.296295
    endloop
  endfacet
  facet normal 1 0 0
    outer loop
      vertex 5 3.96001 12.9299
      vertex 5 2.51001 11.7
      vertex 5 3.96001 11.6
    endloop
  endfacet
  facet normal 1 0 0
    outer loop
      vertex 5 3.96001 11.6
      vertex 5 2.51001 11.7
      vertex 5 2.71001 11.2799
    endloop
  endfacet
  facet normal 1 -1.29224e-07 4.11366e-07
    outer loop
      vertex 5 9.56999 0
      vertex 5 6.01001 1.2
      vertex 5 2.19 0
    endloop
  endfacet
  facet normal 7.92811e-08 0.55579 -0.831323
    outer loop
      vertex -5 9.75369 0.0364981
      vertex 5 9.90939 0.140594
      vertex 5 9.75369 0.036499
    endloop
  endfacet
  facet normal 7.92811e-08 0.55579 -0.831323
    outer loop
      vertex 5 9.90939 0.140594
      vertex -5 9.75369 0.0364981
      vertex -5 9.90939 0.140594
    endloop
  endfacet
  facet normal 5.30043e-08 0.831323 -0.55579
    outer loop
      vertex 5 9.90939 0.140594
      vertex -5 10.0135 0.296294
      vertex 5 10.0135 0.296295
    endloop
  endfacet
  facet normal 5.30043e-08 0.831323 -0.55579
    outer loop
      vertex -5 10.0135 0.296294
      vertex 5 9.90939 0.140594
      vertex -5 9.90939 0.140594
    endloop
  endfacet
  facet normal 1.8585e-08 0.980827 -0.194878
    outer loop
      vertex 5 10.0135 0.296295
      vertex -5 10.05 0.479995
      vertex 5 10.05 0.479996
    endloop
  endfacet
  facet normal 1.8585e-08 0.980827 -0.194878
    outer loop
      vertex -5 10.05 0.479995
      vertex 5 10.0135 0.296295
      vertex -5 10.0135 0.296294
    endloop
  endfacet
  facet normal 0 1 -0
    outer loop
      vertex 5 10.05 0.479996
      vertex -5 10.05 1.71719
      vertex 5 10.05 1.71719
    endloop
  endfacet
  facet normal 0 1 0
    outer loop
      vertex -5 10.05 1.71719
      vertex 5 10.05 0.479996
      vertex -5 10.05 0.479995
    endloop
  endfacet
  facet normal -1.50032e-08 0.987548 0.15732
    outer loop
      vertex 5 10.05 1.71719
      vertex -5 10.0232 1.88539
      vertex 5 10.0232 1.88539
    endloop
  endfacet
  facet normal -1.50032e-08 0.987548 0.15732
    outer loop
      vertex -5 10.0232 1.88539
      vertex 5 10.05 1.71719
      vertex -5 10.05 1.71719
    endloop
  endfacet
  facet normal -3.64982e-08 0.923868 0.382711
    outer loop
      vertex 5 10.0232 1.88539
      vertex -5 9.95 2.06209
      vertex 5 9.95 2.06209
    endloop
  endfacet
  facet normal -3.64982e-08 0.923868 0.382711
    outer loop
      vertex -5 9.95 2.06209
      vertex 5 10.0232 1.88539
      vertex -5 10.0232 1.88539
    endloop
  endfacet
  facet normal -5.59849e-08 0.809555 0.587045
    outer loop
      vertex 5 9.95 2.06209
      vertex -5 9.75 2.33789
      vertex 5 9.75 2.33789
    endloop
  endfacet
  facet normal -5.59849e-08 0.809555 0.587045
    outer loop
      vertex -5 9.75 2.33789
      vertex 5 9.95 2.06209
      vertex -5 9.95 2.06209
    endloop
  endfacet
  facet normal -3.65047e-08 0.92384 0.382779
    outer loop
      vertex 5 9.75 2.33789
      vertex -5 9.67679 2.51459
      vertex 5 9.67679 2.51459
    endloop
  endfacet
  facet normal -3.65047e-08 0.92384 0.382779
    outer loop
      vertex -5 9.67679 2.51459
      vertex 5 9.75 2.33789
      vertex -5 9.75 2.33789
    endloop
  endfacet
  facet normal -1.50032e-08 0.987548 0.15732
    outer loop
      vertex 5 9.67679 2.51459
      vertex -5 9.64999 2.68278
      vertex 5 9.64999 2.68279
    endloop
  endfacet
  facet normal -1.50032e-08 0.987548 0.15732
    outer loop
      vertex -5 9.64999 2.68278
      vertex 5 9.67679 2.51459
      vertex -5 9.67679 2.51459
    endloop
  endfacet
  facet normal 0 1 0
    outer loop
      vertex 5 9.64999 2.68279
      vertex -5 9.64999 15.6
      vertex 5 9.64999 15.6
    endloop
  endfacet
  facet normal 0 1 0
    outer loop
      vertex -5 9.64999 15.6
      vertex 5 9.64999 2.68279
      vertex -5 9.64999 2.68278
    endloop
  endfacet
  facet normal -6.74337e-08 0.70712 0.707093
    outer loop
      vertex 5 9.64999 15.6
      vertex -5 9.25 16
      vertex 5 9.25 16
    endloop
  endfacet
  facet normal -6.74337e-08 0.70712 0.707093
    outer loop
      vertex -5 9.25 16
      vertex 5 9.64999 15.6
      vertex -5 9.64999 15.6
    endloop
  endfacet
  facet normal -9.53674e-08 0 1
    outer loop
      vertex -5 9.25 16
      vertex 5 8.38829 16
      vertex 5 9.25 16
    endloop
  endfacet
  facet normal -9.53674e-08 0 1
    outer loop
      vertex 5 8.38829 16
      vertex -5 9.25 16
      vertex -5 8.38829 16
    endloop
  endfacet
  facet normal -1.32628e-07 -0.823737 0.566973
    outer loop
      vertex -5 8.38829 16
      vertex 5 7.7 15
      vertex 5 8.38829 16
    endloop
  endfacet
  facet normal -1.32628e-07 -0.823737 0.566973
    outer loop
      vertex 5 7.7 15
      vertex -5 8.38829 16
      vertex -5 7.7 15
    endloop
  endfacet
  facet normal -9.53674e-08 -1 0
    outer loop
      vertex -5 7.7 15
      vertex 5 7.7 14.1
      vertex 5 7.7 15
    endloop
  endfacet
  facet normal -9.53674e-08 -1 0
    outer loop
      vertex 5 7.7 14.1
      vertex -5 7.7 15
      vertex -5 7.7 14.1
    endloop
  endfacet
  facet normal -6.37367e-08 -0.957329 -0.289001
    outer loop
      vertex -5 7.7 14.1
      vertex 5 8.09999 12.775
      vertex 5 7.7 14.1
    endloop
  endfacet
  facet normal -6.37367e-08 -0.957329 -0.289001
    outer loop
      vertex 5 8.09999 12.775
      vertex -5 7.7 14.1
      vertex -5 8.09999 12.775
    endloop
  endfacet
  facet normal -9.53674e-08 -1 0
    outer loop
      vertex -5 8.09999 12.775
      vertex 5 8.09999 11.625
      vertex 5 8.09999 12.775
    endloop
  endfacet
  facet normal -9.53674e-08 -1 0
    outer loop
      vertex 5 8.09999 11.625
      vertex -5 8.09999 12.775
      vertex -5 8.09999 11.625
    endloop
  endfacet
  facet normal -1.18859e-07 -0.95733 0.288998
    outer loop
      vertex -5 8.09999 11.625
      vertex 5 7.7 10.3
      vertex 5 8.09999 11.625
    endloop
  endfacet
  facet normal -1.18859e-07 -0.95733 0.288998
    outer loop
      vertex 5 7.7 10.3
      vertex -5 8.09999 11.625
      vertex -5 7.7 10.3
    endloop
  endfacet
  facet normal -9.53674e-08 -1 0
    outer loop
      vertex 5 7.7 10.3
      vertex -5 7.7 10.3
      vertex -5 7.7 1.2
    endloop
  endfacet
  facet normal -9.53674e-08 -1 -9.99446e-15
    outer loop
      vertex 5 7.7 1.2
      vertex 5 7.7 10.3
      vertex -5 7.7 1.2
    endloop
  endfacet
  facet normal -9.53674e-08 0 1
    outer loop
      vertex -5 7.7 1.2
      vertex 5 7 1.2
      vertex 5 7.7 1.2
    endloop
  endfacet
  facet normal -9.53674e-08 0 1
    outer loop
      vertex 5 7 1.2
      vertex -5 7.7 1.2
      vertex -5 7 1.2
    endloop
  endfacet
  facet normal 9.53674e-08 1 0
    outer loop
      vertex -5 7 10.45
      vertex 5 7 1.2
      vertex -5 7 1.2
    endloop
  endfacet
  facet normal 9.53674e-08 1 9.83238e-15
    outer loop
      vertex 5 7 10.45
      vertex 5 7 1.2
      vertex -5 7 10.45
    endloop
  endfacet
  facet normal 1.19896e-07 0.952425 -0.304772
    outer loop
      vertex 5 7 10.45
      vertex -5 7.39999 11.7
      vertex 5 7.39999 11.7
    endloop
  endfacet
  facet normal 1.19896e-07 0.952425 -0.304772
    outer loop
      vertex -5 7.39999 11.7
      vertex 5 7 10.45
      vertex -5 7 10.45
    endloop
  endfacet
  facet normal 9.53674e-08 1 -0
    outer loop
      vertex 5 7.39999 11.7
      vertex -5 7.39999 12.7
      vertex 5 7.39999 12.7
    endloop
  endfacet
  facet normal 9.53674e-08 1 0
    outer loop
      vertex -5 7.39999 12.7
      vertex 5 7.39999 11.7
      vertex -5 7.39999 11.7
    endloop
  endfacet
  facet normal 6.17651e-08 0.952425 0.304772
    outer loop
      vertex 5 7.39999 12.7
      vertex -5 7 13.95
      vertex 5 7 13.95
    endloop
  endfacet
  facet normal 6.17651e-08 0.952425 0.304772
    outer loop
      vertex -5 7 13.95
      vertex 5 7.39999 12.7
      vertex -5 7.39999 12.7
    endloop
  endfacet
  facet normal 9.53674e-08 1 -0
    outer loop
      vertex 5 7 13.95
      vertex -5 7 16
      vertex 5 7 16
    endloop
  endfacet
  facet normal 9.53674e-08 1 0
    outer loop
      vertex -5 7 16
      vertex 5 7 13.95
      vertex -5 7 13.95
    endloop
  endfacet
  facet normal -9.53674e-08 0 1
    outer loop
      vertex -5 7 16
      vertex 5 6.21001 16
      vertex 5 7 16
    endloop
  endfacet
  facet normal -9.53674e-08 0 1
    outer loop
      vertex 5 6.21001 16
      vertex -5 7 16
      vertex -5 6.21001 16
    endloop
  endfacet
  facet normal -9.53674e-08 -1 0
    outer loop
      vertex -5 6.21001 16
      vertex 5 6.21001 3
      vertex 5 6.21001 16
    endloop
  endfacet
  facet normal -9.53674e-08 -1 0
    outer loop
      vertex 5 6.21001 3
      vertex -5 6.21001 16
      vertex -5 6.21001 3
    endloop
  endfacet
  facet normal -1.20631e-07 -0.948686 0.316221
    outer loop
      vertex -5 6.21001 3
      vertex 5 6.01001 2.39999
      vertex 5 6.21001 3
    endloop
  endfacet
  facet normal -1.20631e-07 -0.948686 0.316221
    outer loop
      vertex 5 6.01001 2.39999
      vertex -5 6.21001 3
      vertex -5 6.01001 2.39999
    endloop
  endfacet
  facet normal -9.53674e-08 -1 0
    outer loop
      vertex -5 6.01001 2.39999
      vertex 5 6.01001 1.2
      vertex 5 6.01001 2.39999
    endloop
  endfacet
  facet normal -9.53674e-08 -1 0
    outer loop
      vertex 5 6.01001 1.2
      vertex -5 6.01001 2.39999
      vertex -5 6.01001 1.2
    endloop
  endfacet
  facet normal -9.53674e-08 0 1
    outer loop
      vertex -5 6.01001 1.2
      vertex 5 4.76001 1.2
      vertex 5 6.01001 1.2
    endloop
  endfacet
  facet normal -9.53674e-08 0 1
    outer loop
      vertex 5 4.76001 1.2
      vertex -5 6.01001 1.2
      vertex -5 4.76001 1.2
    endloop
  endfacet
  facet normal 2.64258e-09 0.720826 0.693116
    outer loop
      vertex 5 4.76001 1.2
      vertex -5 4.26001 1.71999
      vertex 5 4.26001 1.71999
    endloop
  endfacet
  facet normal 2.64258e-09 0.720826 0.693116
    outer loop
      vertex -5 4.26001 1.71999
      vertex 5 4.76001 1.2
      vertex -5 4.76001 1.2
    endloop
  endfacet
  facet normal 9.53674e-08 1 -0
    outer loop
      vertex 5 4.26001 1.71999
      vertex -5 4.26001 11.6
      vertex 5 4.26001 11.6
    endloop
  endfacet
  facet normal 9.53674e-08 1 0
    outer loop
      vertex -5 4.26001 11.6
      vertex 5 4.26001 1.71999
      vertex -5 4.26001 1.71999
    endloop
  endfacet
  facet normal -9.53674e-08 0 1
    outer loop
      vertex -5 4.26001 11.6
      vertex 5 3.96001 11.6
      vertex 5 4.26001 11.6
    endloop
  endfacet
  facet normal -9.53674e-08 0 1
    outer loop
      vertex 5 3.96001 11.6
      vertex -5 4.26001 11.6
      vertex -5 3.96001 11.6
    endloop
  endfacet
  facet normal 9.53674e-08 1 -0
    outer loop
      vertex 5 3.96001 11.6
      vertex -5 3.96001 12.9299
      vertex 5 3.96001 12.9299
    endloop
  endfacet
  facet normal 9.53674e-08 1 0
    outer loop
      vertex -5 3.96001 12.9299
      vertex 5 3.96001 11.6
      vertex -5 3.96001 11.6
    endloop
  endfacet
  facet normal 1.33032e-07 0.813799 -0.581146
    outer loop
      vertex 5 3.96001 12.9299
      vertex -5 4.26001 13.35
      vertex 5 4.26001 13.35
    endloop
  endfacet
  facet normal 1.33032e-07 0.813799 -0.581146
    outer loop
      vertex -5 4.26001 13.35
      vertex 5 3.96001 12.9299
      vertex -5 3.96001 12.9299
    endloop
  endfacet
  facet normal 9.53674e-08 1 -0
    outer loop
      vertex 5 4.26001 13.35
      vertex -5 4.26001 15.2
      vertex 5 4.26001 15.2
    endloop
  endfacet
  facet normal 9.53674e-08 1 0
    outer loop
      vertex -5 4.26001 15.2
      vertex 5 4.26001 13.35
      vertex -5 4.26001 13.35
    endloop
  endfacet
  facet normal 2.64077e-08 0.831872 0.554967
    outer loop
      vertex 5 4.26001 15.2
      vertex -5 3.7263 16
      vertex 5 3.7263 16
    endloop
  endfacet
  facet normal 2.64077e-08 0.831872 0.554967
    outer loop
      vertex -5 3.7263 16
      vertex 5 4.26001 15.2
      vertex -5 4.26001 15.2
    endloop
  endfacet
  facet normal -9.53674e-08 0 1
    outer loop
      vertex -5 3.7263 16
      vertex 5 3.11 16
      vertex 5 3.7263 16
    endloop
  endfacet
  facet normal -9.53674e-08 0 1
    outer loop
      vertex 5 3.11 16
      vertex -5 3.7263 16
      vertex -5 3.11 16
    endloop
  endfacet
  facet normal -1.3487e-07 -0.70712 0.707093
    outer loop
      vertex -5 3.11 16
      vertex 5 2.71001 15.6
      vertex 5 3.11 16
    endloop
  endfacet
  facet normal -1.3487e-07 -0.70712 0.707093
    outer loop
      vertex 5 2.71001 15.6
      vertex -5 3.11 16
      vertex -5 2.71001 15.6
    endloop
  endfacet
  facet normal -9.53674e-08 -1 0
    outer loop
      vertex -5 2.71001 15.6
      vertex 5 2.71001 13.35
      vertex 5 2.71001 15.6
    endloop
  endfacet
  facet normal -9.53674e-08 -1 0
    outer loop
      vertex 5 2.71001 13.35
      vertex -5 2.71001 15.6
      vertex -5 2.71001 13.35
    endloop
  endfacet
  facet normal -1.27101e-07 -0.902905 0.429841
    outer loop
      vertex -5 2.71001 13.35
      vertex 5 2.51001 12.9299
      vertex 5 2.71001 13.35
    endloop
  endfacet
  facet normal -1.27101e-07 -0.902905 0.429841
    outer loop
      vertex 5 2.51001 12.9299
      vertex -5 2.71001 13.35
      vertex -5 2.51001 12.9299
    endloop
  endfacet
  facet normal -9.53674e-08 -1 0
    outer loop
      vertex -5 2.51001 12.9299
      vertex 5 2.51001 11.7
      vertex 5 2.51001 12.9299
    endloop
  endfacet
  facet normal -9.53674e-08 -1 0
    outer loop
      vertex 5 2.51001 11.7
      vertex -5 2.51001 12.9299
      vertex -5 2.51001 11.7
    endloop
  endfacet
  facet normal -4.51149e-08 -0.902905 -0.429841
    outer loop
      vertex -5 2.51001 11.7
      vertex 5 2.71001 11.2799
      vertex 5 2.51001 11.7
    endloop
  endfacet
  facet normal -4.51149e-08 -0.902905 -0.429841
    outer loop
      vertex 5 2.71001 11.2799
      vertex -5 2.51001 11.7
      vertex -5 2.71001 11.2799
    endloop
  endfacet
  facet normal -9.53674e-08 -1 0
    outer loop
      vertex -5 2.71001 11.2799
      vertex 5 2.71001 3.81459
      vertex 5 2.71001 11.2799
    endloop
  endfacet
  facet normal -9.53674e-08 -1 0
    outer loop
      vertex 5 2.71001 3.81459
      vertex -5 2.71001 11.2799
      vertex -5 2.71001 3.81459
    endloop
  endfacet
  facet normal -1.06413e-07 -0.992348 0.123469
    outer loop
      vertex -5 2.71001 3.81459
      vertex 5 2.68541 3.6169
      vertex 5 2.71001 3.81459
    endloop
  endfacet
  facet normal -1.06413e-07 -0.992348 0.123469
    outer loop
      vertex 5 2.68541 3.6169
      vertex -5 2.71001 3.81459
      vertex -5 2.68541 3.6169
    endloop
  endfacet
  facet normal -1.19428e-07 -0.954687 0.297611
    outer loop
      vertex -5 2.68541 3.6169
      vertex 5 2.61801 3.4007
      vertex 5 2.68541 3.6169
    endloop
  endfacet
  facet normal -1.19428e-07 -0.954687 0.297611
    outer loop
      vertex 5 2.61801 3.4007
      vertex -5 2.68541 3.6169
      vertex -5 2.61801 3.40069
    endloop
  endfacet
  facet normal -1.28633e-07 -0.886953 0.461859
    outer loop
      vertex -5 2.61801 3.40069
      vertex 5 2.526 3.224
      vertex 5 2.61801 3.4007
    endloop
  endfacet
  facet normal -1.28633e-07 -0.886953 0.461859
    outer loop
      vertex 5 2.526 3.224
      vertex -5 2.61801 3.40069
      vertex -5 2.526 3.224
    endloop
  endfacet
  facet normal -1.32653e-07 -0.823164 0.567804
    outer loop
      vertex -5 2.526 3.224
      vertex 5 1.89401 2.30779
      vertex 5 2.526 3.224
    endloop
  endfacet
  facet normal -1.32653e-07 -0.823164 0.567804
    outer loop
      vertex 5 1.89401 2.30779
      vertex -5 2.526 3.224
      vertex -5 1.89401 2.30778
    endloop
  endfacet
  facet normal -1.28633e-07 -0.886953 0.461859
    outer loop
      vertex -5 1.89401 2.30778
      vertex 5 1.802 2.13109
      vertex 5 1.89401 2.30779
    endloop
  endfacet
  facet normal -1.28633e-07 -0.886953 0.461859
    outer loop
      vertex 5 1.802 2.13109
      vertex -5 1.89401 2.30778
      vertex -5 1.802 2.13109
    endloop
  endfacet
  facet normal -1.19428e-07 -0.954687 0.297611
    outer loop
      vertex -5 1.802 2.13109
      vertex 5 1.7346 1.91489
      vertex 5 1.802 2.13109
    endloop
  endfacet
  facet normal -1.19428e-07 -0.954687 0.297611
    outer loop
      vertex 5 1.7346 1.91489
      vertex -5 1.802 2.13109
      vertex -5 1.7346 1.91489
    endloop
  endfacet
  facet normal -1.06413e-07 -0.992348 0.123469
    outer loop
      vertex -5 1.7346 1.91489
      vertex 5 1.71001 1.71719
      vertex 5 1.7346 1.91489
    endloop
  endfacet
  facet normal -1.06413e-07 -0.992348 0.123469
    outer loop
      vertex 5 1.71001 1.71719
      vertex -5 1.7346 1.91489
      vertex -5 1.71001 1.71719
    endloop
  endfacet
  facet normal -9.53674e-08 -1 0
    outer loop
      vertex -5 1.71001 1.71719
      vertex 5 1.71001 0.479996
      vertex 5 1.71001 1.71719
    endloop
  endfacet
  facet normal -9.53674e-08 -1 0
    outer loop
      vertex 5 1.71001 0.479996
      vertex -5 1.71001 1.71719
      vertex -5 1.71001 0.479995
    endloop
  endfacet
  facet normal -7.4954e-08 -0.980827 -0.194878
    outer loop
      vertex -5 1.71001 0.479995
      vertex 5 1.7465 0.296295
      vertex 5 1.71001 0.479996
    endloop
  endfacet
  facet normal -7.4954e-08 -0.980827 -0.194878
    outer loop
      vertex 5 1.7465 0.296295
      vertex -5 1.71001 0.479995
      vertex -5 1.74651 0.296294
    endloop
  endfacet
  facet normal -2.62768e-08 -0.831323 -0.55579
    outer loop
      vertex -5 1.74651 0.296294
      vertex 5 1.8506 0.140594
      vertex 5 1.7465 0.296295
    endloop
  endfacet
  facet normal -2.62768e-08 -0.831323 -0.55579
    outer loop
      vertex 5 1.8506 0.140594
      vertex -5 1.74651 0.296294
      vertex -5 1.8506 0.140594
    endloop
  endfacet
  facet normal 2.62768e-08 -0.55579 -0.831323
    outer loop
      vertex -5 1.8506 0.140594
      vertex 5 2.0063 0.036499
      vertex 5 1.8506 0.140594
    endloop
  endfacet
  facet normal 2.62768e-08 -0.55579 -0.831323
    outer loop
      vertex 5 2.0063 0.036499
      vertex -5 1.8506 0.140594
      vertex -5 2.0063 0.0364981
    endloop
  endfacet
  facet normal 7.49545e-08 -0.194873 -0.980828
    outer loop
      vertex -5 2.19 0
      vertex 5 2.0063 0.036499
      vertex -5 2.0063 0.0364981
    endloop
  endfacet
  facet normal -1.8585e-08 -0.194878 -0.980827
    outer loop
      vertex 5 2.19 0
      vertex 5 2.0063 0.036499
      vertex -5 2.19 0
    endloop
  endfacet
  facet normal 0 0 -1
    outer loop
      vertex 5 2.19 0
      vertex -5 9.56999 0
      vertex 5 9.56999 0
    endloop
  endfacet
  facet normal 0 -0 -1
    outer loop
      vertex -5 9.56999 0
      vertex 5 2.19 0
      vertex -5 2.19 0
    endloop
  endfacet
  facet normal 0 0.194873 -0.980828
    outer loop
      vertex -5 9.75369 0.0364981
      vertex 5 9.56999 0
      vertex -5 9.56999 0
    endloop
  endfacet
  facet normal 9.3539e-08 0.194878 -0.980827
    outer loop
      vertex 5 9.75369 0.036499
      vertex 5 9.56999 0
      vertex -5 9.75369 0.0364981
    endloop
  endfacet
  facet normal -1 0 0
    outer loop
      vertex -5 -5.95 5.67
      vertex -5 -5.64999 6.79999
      vertex -5 -5.64999 5.25
    endloop
  endfacet
  facet normal -1 -0 0
    outer loop
      vertex -5 -5.64999 6.79999
      vertex -5 -5.95 5.67
      vertex -5 -5.95 6.79999
    endloop
  endfacet
  facet normal -1 0 0
    outer loop
      vertex -5 -3.59999 0
      vertex -5 -3 0.59999
      vertex -5 -3.04568 0.370391
    endloop
  endfacet
  facet normal -1 0 0
    outer loop
      vertex -5 -3.59999 0
      vertex -5 -3.04568 0.370391
      vertex -5 -3.17569 0.175689
    endloop
  endfacet
  facet normal -1 0 0
    outer loop
      vertex -5 -3 0.59999
      vertex -5 -5.64999 3.1523
      vertex -5 -3 3.5
    endloop
  endfacet
  facet normal -1 0 0
    outer loop
      vertex -5 -3.59999 0
      vertex -5 -3.17569 0.175689
      vertex -5 -3.37039 0.0456839
    endloop
  endfacet
  facet normal -1 0 0
    outer loop
      vertex -5 -6.15829 2.39999
      vertex -5 -3 0.59999
      vertex -5 -3.59999 0
    endloop
  endfacet
  facet normal -1 0 0
    outer loop
      vertex -5 -5.64999 6.79999
      vertex -5 -3 3.5
      vertex -5 -5.64999 5.25
    endloop
  endfacet
  facet normal -1 0 0
    outer loop
      vertex -5 -5.64999 16.6
      vertex -5 -4.09999 17.2
      vertex -5 -4.09999 10.496
    endloop
  endfacet
  facet normal -1 0 0
    outer loop
      vertex -5 -3 3.5
      vertex -5 -5.64999 6.79999
      vertex -5 -3.27829 8.7
    endloop
  endfacet
  facet normal -1 -0 0
    outer loop
      vertex -5 -3 3.5
      vertex -5 -5.64999 3.1523
      vertex -5 -5.64999 5.25
    endloop
  endfacet
  facet normal -1 0 0
    outer loop
      vertex -5 -3 0.59999
      vertex -5 -6.15829 2.39999
      vertex -5 -5.64999 3.1523
    endloop
  endfacet
  facet normal -1 0 0
    outer loop
      vertex -5 -11.15 0
      vertex -5 -6.15829 2.39999
      vertex -5 -3.59999 0
    endloop
  endfacet
  facet normal -1 0 0
    outer loop
      vertex -5 -11.15 0
      vertex -5 -11.15 2.39999
      vertex -5 -6.15829 2.39999
    endloop
  endfacet
  facet normal -1 0 0
    outer loop
      vertex -5 -11.75 0.59999
      vertex -5 -11.15 0
      vertex -5 -11.3796 0.0456839
    endloop
  endfacet
  facet normal -1 0 0
    outer loop
      vertex -5 -11.15 0
      vertex -5 -11.75 0.59999
      vertex -5 -11.15 2.39999
    endloop
  endfacet
  facet normal -1 0 0
    outer loop
      vertex -5 -11.75 0.59999
      vertex -5 -11.3796 0.0456839
      vertex -5 -11.5743 0.175689
    endloop
  endfacet
  facet normal -1 0 0
    outer loop
      vertex -5 -11.75 1.79999
      vertex -5 -11.15 2.39999
      vertex -5 -11.75 0.59999
    endloop
  endfacet
  facet normal -1 0 0
    outer loop
      vertex -5 -11.75 0.59999
      vertex -5 -11.5743 0.175689
      vertex -5 -11.7043 0.370391
    endloop
  endfacet
  facet normal -1 0 0
    outer loop
      vertex -5 -11.15 2.39999
      vertex -5 -11.75 1.79999
      vertex -5 -11.3796 2.35429
    endloop
  endfacet
  facet normal -1 0 0
    outer loop
      vertex -5 -11.3796 2.35429
      vertex -5 -11.75 1.79999
      vertex -5 -11.5743 2.22429
    endloop
  endfacet
  facet normal -1 0 0
    outer loop
      vertex -5 -11.5743 2.22429
      vertex -5 -11.75 1.79999
      vertex -5 -11.7043 2.02959
    endloop
  endfacet
  facet normal -1 -0 0
    outer loop
      vertex -5 -3.27829 8.7
      vertex -5 -5.64999 6.79999
      vertex -5 -4.09999 10.496
    endloop
  endfacet
  facet normal -1 0 0
    outer loop
      vertex -5 -5.64999 16.6
      vertex -5 -4.09999 10.496
      vertex -5 -5.64999 6.79999
    endloop
  endfacet
  facet normal -1 -0 0
    outer loop
      vertex -5 -4.09999 17.2
      vertex -5 -5.64999 16.6
      vertex -5 -5.04999 17.2
    endloop
  endfacet
  facet normal 1 0 0
    outer loop
      vertex 5 -3 0.599991
      vertex 5 -3.17569 0.17569
      vertex 5 -3.04568 0.370392
    endloop
  endfacet
  facet normal 1 0 0
    outer loop
      vertex 5 -3 0.599991
      vertex 5 -3.37039 0.0456848
      vertex 5 -3.17569 0.17569
    endloop
  endfacet
  facet normal 1 0 -0
    outer loop
      vertex 5 -3.37039 0.0456848
      vertex 5 -3 0.599991
      vertex 5 -3.59999 0
    endloop
  endfacet
  facet normal 1 -4.31482e-08 3.28852e-07
    outer loop
      vertex 5 -3 0.599991
      vertex 5 -3 3.5
      vertex 5 -5.64999 3.1523
    endloop
  endfacet
  facet normal 1 0 0
    outer loop
      vertex 5 -5.64999 16.6
      vertex 5 -4.09999 17.2
      vertex 5 -5.04999 17.2
    endloop
  endfacet
  facet normal 1 0 0
    outer loop
      vertex 5 -5.64999 6.79999
      vertex 5 -3.27829 8.7
      vertex 5 -4.09999 10.496
    endloop
  endfacet
  facet normal 1 0 0
    outer loop
      vertex 5 -4.09999 17.2
      vertex 5 -5.64999 16.6
      vertex 5 -4.09999 10.496
    endloop
  endfacet
  facet normal 1 0 0
    outer loop
      vertex 5 -5.64999 6.79999
      vertex 5 -4.09999 10.496
      vertex 5 -5.64999 16.6
    endloop
  endfacet
  facet normal 1 0 0
    outer loop
      vertex 5 -3.27829 8.7
      vertex 5 -5.64999 6.79999
      vertex 5 -3 3.5
    endloop
  endfacet
  facet normal 1 -0 0
    outer loop
      vertex 5 -5.64999 5.25
      vertex 5 -3 3.5
      vertex 5 -5.64999 6.79999
    endloop
  endfacet
  facet normal 1 0 0
    outer loop
      vertex 5 -3 3.5
      vertex 5 -5.64999 5.25
      vertex 5 -5.64999 3.1523
    endloop
  endfacet
  facet normal 1 0 0
    outer loop
      vertex 5 -5.95 5.67
      vertex 5 -5.64999 6.79999
      vertex 5 -5.95 6.79999
    endloop
  endfacet
  facet normal 1 0 0
    outer loop
      vertex 5 -5.64999 6.79999
      vertex 5 -5.95 5.67
      vertex 5 -5.64999 5.25
    endloop
  endfacet
  facet normal 1 -2.18008e-07 1.47299e-07
    outer loop
      vertex 5 -3 0.599991
      vertex 5 -5.64999 3.1523
      vertex 5 -6.15829 2.39999
    endloop
  endfacet
  facet normal 1 -1.92339e-07 1.92339e-07
    outer loop
      vertex 5 -3.59999 0
      vertex 5 -3 0.599991
      vertex 5 -6.15829 2.39999
    endloop
  endfacet
  facet normal 1 -0 0
    outer loop
      vertex 5 -11.15 2.39999
      vertex 5 -11.15 0
      vertex 5 -6.15829 2.39999
    endloop
  endfacet
  facet normal 1 0 0
    outer loop
      vertex 5 -11.75 1.79999
      vertex 5 -11.15 2.39999
      vertex 5 -11.3796 2.35429
    endloop
  endfacet
  facet normal 1 0 0
    outer loop
      vertex 5 -11.15 2.39999
      vertex 5 -11.75 1.79999
      vertex 5 -11.15 0
    endloop
  endfacet
  facet normal 1 0 0
    outer loop
      vertex 5 -11.75 1.79999
      vertex 5 -11.3796 2.35429
      vertex 5 -11.5743 2.22429
    endloop
  endfacet
  facet normal 1 -0 0
    outer loop
      vertex 5 -11.75 0.599991
      vertex 5 -11.15 0
      vertex 5 -11.75 1.79999
    endloop
  endfacet
  facet normal 1 0 0
    outer loop
      vertex 5 -11.75 1.79999
      vertex 5 -11.5743 2.22429
      vertex 5 -11.7043 2.02959
    endloop
  endfacet
  facet normal 1 0 0
    outer loop
      vertex 5 -11.15 0
      vertex 5 -11.75 0.599991
      vertex 5 -11.3796 0.0456848
    endloop
  endfacet
  facet normal 1 0 0
    outer loop
      vertex 5 -11.3796 0.0456848
      vertex 5 -11.75 0.599991
      vertex 5 -11.5743 0.17569
    endloop
  endfacet
  facet normal 1 0 0
    outer loop
      vertex 5 -11.5743 0.17569
      vertex 5 -11.75 0.599991
      vertex 5 -11.7043 0.370392
    endloop
  endfacet
  facet normal 1 -1.26314e-07 2.62719e-07
    outer loop
      vertex 5 -3.59999 0
      vertex 5 -6.15829 2.39999
      vertex 5 -11.15 0
    endloop
  endfacet
  facet normal 1.3227e-07 0.555302 -0.831649
    outer loop
      vertex -5 -3.37039 0.0456839
      vertex 5 -3.17569 0.17569
      vertex 5 -3.37039 0.0456848
    endloop
  endfacet
  facet normal 1.3227e-07 0.555302 -0.831649
    outer loop
      vertex 5 -3.17569 0.17569
      vertex -5 -3.37039 0.0456839
      vertex -5 -3.17569 0.175689
    endloop
  endfacet
  facet normal 1.3227e-07 0.831649 -0.555302
    outer loop
      vertex 5 -3.17569 0.17569
      vertex -5 -3.04568 0.370391
      vertex 5 -3.04568 0.370392
    endloop
  endfacet
  facet normal 1.3227e-07 0.831649 -0.555302
    outer loop
      vertex -5 -3.04568 0.370391
      vertex 5 -3.17569 0.17569
      vertex -5 -3.17569 0.175689
    endloop
  endfacet
  facet normal 1.12145e-07 0.980773 -0.195151
    outer loop
      vertex 5 -3.04568 0.370392
      vertex -5 -3 0.59999
      vertex 5 -3 0.599991
    endloop
  endfacet
  facet normal 1.12145e-07 0.980773 -0.195151
    outer loop
      vertex -5 -3 0.59999
      vertex 5 -3.04568 0.370392
      vertex -5 -3.04568 0.370391
    endloop
  endfacet
  facet normal 9.53674e-08 1 0
    outer loop
      vertex -5 -3 3.5
      vertex 5 -3 0.599991
      vertex -5 -3 0.59999
    endloop
  endfacet
  facet normal 9.53674e-08 1 3.13618e-14
    outer loop
      vertex 5 -3 3.5
      vertex 5 -3 0.599991
      vertex -5 -3 3.5
    endloop
  endfacet
  facet normal 9.01346e-08 0.998571 0.0534408
    outer loop
      vertex 5 -3 3.5
      vertex -5 -3.27829 8.7
      vertex 5 -3.27829 8.7
    endloop
  endfacet
  facet normal 9.01346e-08 0.998571 0.0534408
    outer loop
      vertex -5 -3.27829 8.7
      vertex 5 -3 3.5
      vertex -5 -3 3.5
    endloop
  endfacet
  facet normal 4.70449e-08 0.909345 0.416043
    outer loop
      vertex 5 -3.27829 8.7
      vertex -5 -4.09999 10.496
      vertex 5 -4.09999 10.496
    endloop
  endfacet
  facet normal 4.70449e-08 0.909345 0.416043
    outer loop
      vertex -5 -4.09999 10.496
      vertex 5 -3.27829 8.7
      vertex -5 -3.27829 8.7
    endloop
  endfacet
  facet normal 9.53674e-08 1 -0
    outer loop
      vertex 5 -4.09999 10.496
      vertex -5 -4.09999 17.2
      vertex 5 -4.09999 17.2
    endloop
  endfacet
  facet normal 9.53674e-08 1 0
    outer loop
      vertex -5 -4.09999 17.2
      vertex 5 -4.09999 10.496
      vertex -5 -4.09999 10.496
    endloop
  endfacet
  facet normal 0 0 1
    outer loop
      vertex -5 -4.09999 17.2
      vertex 5 -5.04999 17.2
      vertex 5 -4.09999 17.2
    endloop
  endfacet
  facet normal 0 0 1
    outer loop
      vertex 5 -5.04999 17.2
      vertex -5 -4.09999 17.2
      vertex -5 -5.04999 17.2
    endloop
  endfacet
  facet normal -6.7435e-08 -0.707107 0.707107
    outer loop
      vertex -5 -5.64999 16.6
      vertex 5 -5.04999 17.2
      vertex -5 -5.04999 17.2
    endloop
  endfacet
  facet normal -6.7435e-08 -0.707107 0.707107
    outer loop
      vertex 5 -5.04999 17.2
      vertex -5 -5.64999 16.6
      vertex 5 -5.64999 16.6
    endloop
  endfacet
  facet normal -9.53674e-08 -1 0
    outer loop
      vertex -5 -5.64999 16.6
      vertex 5 -5.64999 6.79999
      vertex 5 -5.64999 16.6
    endloop
  endfacet
  facet normal -9.53674e-08 -1 0
    outer loop
      vertex 5 -5.64999 6.79999
      vertex -5 -5.64999 16.6
      vertex -5 -5.64999 6.79999
    endloop
  endfacet
  facet normal -9.53674e-08 0 1
    outer loop
      vertex -5 -5.64999 6.79999
      vertex 5 -5.95 6.79999
      vertex 5 -5.64999 6.79999
    endloop
  endfacet
  facet normal -9.53674e-08 0 1
    outer loop
      vertex 5 -5.95 6.79999
      vertex -5 -5.64999 6.79999
      vertex -5 -5.95 6.79999
    endloop
  endfacet
  facet normal -9.53674e-08 -1 0
    outer loop
      vertex -5 -5.95 6.79999
      vertex 5 -5.95 5.67
      vertex 5 -5.95 6.79999
    endloop
  endfacet
  facet normal -9.53674e-08 -1 0
    outer loop
      vertex 5 -5.95 5.67
      vertex -5 -5.95 6.79999
      vertex -5 -5.95 5.67
    endloop
  endfacet
  facet normal -2.21716e-08 -0.813729 -0.581244
    outer loop
      vertex -5 -5.95 5.67
      vertex 5 -5.64999 5.25
      vertex 5 -5.95 5.67
    endloop
  endfacet
  facet normal -2.21716e-08 -0.813729 -0.581244
    outer loop
      vertex 5 -5.64999 5.25
      vertex -5 -5.95 5.67
      vertex -5 -5.64999 5.25
    endloop
  endfacet
  facet normal -9.53674e-08 -1 0
    outer loop
      vertex -5 -5.64999 5.25
      vertex 5 -5.64999 3.1523
      vertex 5 -5.64999 5.25
    endloop
  endfacet
  facet normal -9.53674e-08 -1 0
    outer loop
      vertex 5 -5.64999 3.1523
      vertex -5 -5.64999 5.25
      vertex -5 -5.64999 3.1523
    endloop
  endfacet
  facet normal -1.32412e-07 -0.828596 0.559848
    outer loop
      vertex -5 -5.64999 3.1523
      vertex 5 -6.15829 2.39999
      vertex 5 -5.64999 3.1523
    endloop
  endfacet
  facet normal -1.32412e-07 -0.828596 0.559848
    outer loop
      vertex 5 -6.15829 2.39999
      vertex -5 -5.64999 3.1523
      vertex -5 -6.15829 2.39999
    endloop
  endfacet
  facet normal -9.53674e-08 0 1
    outer loop
      vertex -5 -6.15829 2.39999
      vertex 5 -11.15 2.39999
      vertex 5 -6.15829 2.39999
    endloop
  endfacet
  facet normal -9.53674e-08 0 1
    outer loop
      vertex 5 -11.15 2.39999
      vertex -5 -6.15829 2.39999
      vertex -5 -11.15 2.39999
    endloop
  endfacet
  facet normal -1.1215e-07 -0.195214 0.980761
    outer loop
      vertex -5 -11.15 2.39999
      vertex 5 -11.3796 2.35429
      vertex 5 -11.15 2.39999
    endloop
  endfacet
  facet normal -1.1215e-07 -0.195214 0.980761
    outer loop
      vertex 5 -11.3796 2.35429
      vertex -5 -11.15 2.39999
      vertex -5 -11.3796 2.35429
    endloop
  endfacet
  facet normal -1.3227e-07 -0.555302 0.831649
    outer loop
      vertex -5 -11.3796 2.35429
      vertex 5 -11.5743 2.22429
      vertex 5 -11.3796 2.35429
    endloop
  endfacet
  facet normal -1.3227e-07 -0.555302 0.831649
    outer loop
      vertex 5 -11.5743 2.22429
      vertex -5 -11.3796 2.35429
      vertex -5 -11.5743 2.22429
    endloop
  endfacet
  facet normal -1.3227e-07 -0.831649 0.555302
    outer loop
      vertex -5 -11.5743 2.22429
      vertex 5 -11.7043 2.02959
      vertex 5 -11.5743 2.22429
    endloop
  endfacet
  facet normal -1.3227e-07 -0.831649 0.555302
    outer loop
      vertex 5 -11.7043 2.02959
      vertex -5 -11.5743 2.22429
      vertex -5 -11.7043 2.02959
    endloop
  endfacet
  facet normal -1.1215e-07 -0.980761 0.195214
    outer loop
      vertex -5 -11.7043 2.02959
      vertex 5 -11.75 1.79999
      vertex 5 -11.7043 2.02959
    endloop
  endfacet
  facet normal -1.1215e-07 -0.980761 0.195214
    outer loop
      vertex 5 -11.75 1.79999
      vertex -5 -11.7043 2.02959
      vertex -5 -11.75 1.79999
    endloop
  endfacet
  facet normal -9.53674e-08 -1 0
    outer loop
      vertex -5 -11.75 1.79999
      vertex 5 -11.75 0.599991
      vertex 5 -11.75 1.79999
    endloop
  endfacet
  facet normal -9.53674e-08 -1 0
    outer loop
      vertex 5 -11.75 0.599991
      vertex -5 -11.75 1.79999
      vertex -5 -11.75 0.59999
    endloop
  endfacet
  facet normal -7.49156e-08 -0.980761 -0.195214
    outer loop
      vertex -5 -11.75 0.59999
      vertex 5 -11.7043 0.370392
      vertex 5 -11.75 0.599991
    endloop
  endfacet
  facet normal -7.49156e-08 -0.980761 -0.195214
    outer loop
      vertex 5 -11.7043 0.370392
      vertex -5 -11.75 0.59999
      vertex -5 -11.7043 0.370391
    endloop
  endfacet
  facet normal -2.63545e-08 -0.831649 -0.555302
    outer loop
      vertex -5 -11.7043 0.370391
      vertex 5 -11.5743 0.17569
      vertex 5 -11.7043 0.370392
    endloop
  endfacet
  facet normal -2.63545e-08 -0.831649 -0.555302
    outer loop
      vertex 5 -11.5743 0.17569
      vertex -5 -11.7043 0.370391
      vertex -5 -11.5743 0.175689
    endloop
  endfacet
  facet normal 2.63545e-08 -0.555302 -0.831649
    outer loop
      vertex -5 -11.5743 0.175689
      vertex 5 -11.3796 0.0456848
      vertex 5 -11.5743 0.17569
    endloop
  endfacet
  facet normal 2.63545e-08 -0.555302 -0.831649
    outer loop
      vertex 5 -11.3796 0.0456848
      vertex -5 -11.5743 0.175689
      vertex -5 -11.3796 0.0456839
    endloop
  endfacet
  facet normal 7.49232e-08 -0.195147 -0.980774
    outer loop
      vertex -5 -11.15 0
      vertex 5 -11.3796 0.0456848
      vertex -5 -11.3796 0.0456839
    endloop
  endfacet
  facet normal -1.8611e-08 -0.195151 -0.980773
    outer loop
      vertex 5 -11.15 0
      vertex 5 -11.3796 0.0456848
      vertex -5 -11.15 0
    endloop
  endfacet
  facet normal 0 0 -1
    outer loop
      vertex -5 -11.15 0
      vertex 5 -3.59999 0
      vertex 5 -11.15 0
    endloop
  endfacet
  facet normal -0 0 -1
    outer loop
      vertex 5 -3.59999 0
      vertex -5 -11.15 0
      vertex -5 -3.59999 0
    endloop
  endfacet
  facet normal 1.86107e-08 0.195147 -0.980774
    outer loop
      vertex -5 -3.37039 0.0456839
      vertex 5 -3.59999 0
      vertex -5 -3.59999 0
    endloop
  endfacet
  facet normal 1.12145e-07 0.195151 -0.980773
    outer loop
      vertex 5 -3.37039 0.0456848
      vertex 5 -3.59999 0
      vertex -5 -3.37039 0.0456839
    endloop
  endfacet
endsolid OpenSCAD_Model
